<?xml version="1.0" encoding="UTF-8"?>
<svg version="1.1" xmlns="http://www.w3.org/2000/svg" width="400" height="400">
<path d="M0 0 C1.25090675 -0.00311998 2.50181351 -0.00623996 3.79062653 -0.00945449 C7.24183543 -0.01776343 10.69293298 -0.01369508 14.14414215 -0.00748205 C17.87425979 -0.00294252 21.60435877 -0.00994875 25.33447266 -0.01544189 C32.63351902 -0.02432154 39.93252419 -0.02242026 47.23157215 -0.01661661 C53.16520843 -0.0120945 59.09883319 -0.0114896 65.0324707 -0.01366425 C65.87791333 -0.01397071 66.72335595 -0.01427718 67.59441805 -0.01459293 C69.31207466 -0.0152324 71.02973128 -0.01588083 72.74738789 -0.01653811 C88.84284809 -0.02223722 104.93828549 -0.01569009 121.03374195 -0.00493738 C134.83565709 0.00399775 148.63753859 0.00244559 162.43945312 -0.0067749 C178.47846785 -0.01748494 194.5174626 -0.02168794 210.55648041 -0.01555037 C212.26771545 -0.0149133 213.9789505 -0.01428455 215.69018555 -0.01366425 C216.95303021 -0.01320142 216.95303021 -0.01320142 218.24138689 -0.01272924 C224.16589368 -0.0110045 230.09038776 -0.01391264 236.01489258 -0.01862335 C243.2377414 -0.02424033 250.46054676 -0.02269857 257.68339062 -0.01206186 C261.36652708 -0.00681615 265.04959117 -0.00472961 268.73272705 -0.01136017 C272.72943277 -0.01844626 276.7259567 -0.00996847 280.72265625 0 C281.88093178 -0.00446144 283.03920731 -0.00892289 284.23258209 -0.01351953 C294.0617169 0.03402231 301.73304262 0.76180941 309.36132812 7.25396729 C309.36132812 7.91396729 309.36132812 8.57396729 309.36132812 9.25396729 C310.35132813 9.58396729 311.34132813 9.91396729 312.36132812 10.25396729 C318.97935879 18.27582263 318.65369291 27.9239175 318.61529541 37.89263916 C318.61841539 39.14354591 318.62153537 40.39445267 318.6247499 41.68326569 C318.63305884 45.13447459 318.62899049 48.58557214 318.62277746 52.03678131 C318.61823793 55.76689895 318.62524416 59.49699793 318.6307373 63.22711182 C318.63961695 70.52615818 318.63771567 77.82516335 318.63191202 85.12421131 C318.62738991 91.05784759 318.62678501 96.99147235 318.62895966 102.92510986 C318.62926612 103.77055249 318.62957259 104.61599511 318.62988834 105.48705721 C318.63052781 107.20471382 318.63117624 108.92237044 318.63183352 110.64002705 C318.63753263 126.73548725 318.6309855 142.83092465 318.62023279 158.92638111 C318.61129766 172.72829625 318.61284982 186.53017775 318.62207031 200.33209229 C318.63278035 216.37110701 318.63698335 232.41010176 318.63084579 248.44911957 C318.63020871 250.16035461 318.62957996 251.87158966 318.62895966 253.58282471 C318.6286511 254.42472115 318.62834255 255.26661759 318.62802465 256.13402605 C318.62629991 262.05853284 318.62920805 267.98302692 318.63391876 273.90753174 C318.63953574 281.13038056 318.63799398 288.35318592 318.62735727 295.57602978 C318.62211156 299.25916624 318.62002502 302.94223033 318.62665558 306.62536621 C318.63374167 310.62207193 318.62526388 314.61859587 318.61529541 318.61529541 C318.61975685 319.77357094 318.6242183 320.93184647 318.62881494 322.12522125 C318.5812731 331.95435606 317.853486 339.62568178 311.36132812 347.25396729 C310.70132812 347.25396729 310.04132813 347.25396729 309.36132812 347.25396729 C309.03132813 348.24396729 308.70132812 349.23396729 308.36132812 350.25396729 C300.33947278 356.87199795 290.69137791 356.54633207 280.72265625 356.50793457 C278.84629612 356.51261454 278.84629612 356.51261454 276.93202972 356.51738906 C273.48082082 356.525698 270.02972327 356.52162965 266.5785141 356.51541662 C262.84839646 356.51087709 259.11829748 356.51788332 255.38818359 356.52337646 C248.08913723 356.53225611 240.79013206 356.53035483 233.4910841 356.52455118 C227.55744782 356.52002907 221.62382306 356.51942417 215.69018555 356.52159882 C214.84474292 356.52190528 213.9993003 356.52221175 213.1282382 356.5225275 C211.41058159 356.52316697 209.69292497 356.5238154 207.97526836 356.52447268 C191.87980816 356.53017179 175.78437076 356.52362466 159.6889143 356.51287195 C145.88699916 356.50393682 132.08511766 356.50548898 118.28320312 356.51470947 C102.2441884 356.52541951 86.20519365 356.52962251 70.16617584 356.52348495 C68.4549408 356.52284787 66.74370575 356.52221912 65.0324707 356.52159882 C63.76962604 356.52113599 63.76962604 356.52113599 62.48126936 356.52066381 C56.55676257 356.51893907 50.63226849 356.52184721 44.70776367 356.52655792 C37.48491485 356.5321749 30.26210949 356.53063314 23.03926563 356.51999643 C19.35612917 356.51475072 15.67306508 356.51266418 11.9899292 356.51929474 C7.99322348 356.52638083 3.99669955 356.51790304 0 356.50793457 C-1.15827553 356.51239601 -2.31655106 356.51685746 -3.50992584 356.5214541 C-13.33906065 356.47391226 -21.01038637 355.74612516 -28.63867188 349.25396729 C-28.63867188 348.59396729 -28.63867188 347.93396729 -28.63867188 347.25396729 C-29.62867188 346.92396729 -30.61867188 346.59396729 -31.63867188 346.25396729 C-38.25670254 338.23211194 -37.93103666 328.58401707 -37.89263916 318.61529541 C-37.89575914 317.36438866 -37.89887912 316.1134819 -37.90209365 314.82466888 C-37.91040259 311.37345998 -37.90633424 307.92236243 -37.90012121 304.47115326 C-37.89558168 300.74103562 -37.90258791 297.01093664 -37.90808105 293.28082275 C-37.9169607 285.98177639 -37.91505942 278.68277122 -37.90925577 271.38372326 C-37.90473366 265.45008698 -37.90412876 259.51646222 -37.90630341 253.58282471 C-37.90660987 252.73738208 -37.90691634 251.89193946 -37.90723209 251.02087736 C-37.90787156 249.30322075 -37.90851999 247.58556413 -37.90917727 245.86790752 C-37.91487638 229.77244732 -37.90832925 213.67700992 -37.89757654 197.58155346 C-37.88864141 183.77963832 -37.89019357 169.97775682 -37.89941406 156.17584229 C-37.9101241 140.13682756 -37.9143271 124.09783281 -37.90818954 108.058815 C-37.90755246 106.34757996 -37.90692371 104.63634491 -37.90630341 102.92510986 C-37.90599485 102.08321342 -37.9056863 101.24131698 -37.9053684 100.37390852 C-37.90364366 94.44940173 -37.9065518 88.52490765 -37.91126251 82.60040283 C-37.91687949 75.37755401 -37.91533773 68.15474865 -37.90470102 60.93190479 C-37.89945531 57.24876833 -37.89736877 53.56570424 -37.90399933 49.88256836 C-37.91108542 45.88586264 -37.90260763 41.88933871 -37.89263916 37.89263916 C-37.8971006 36.73436363 -37.90156205 35.5760881 -37.90615869 34.38271332 C-37.85861685 24.55357851 -37.13082975 16.88225279 -30.63867188 9.25396729 C-29.97867187 9.25396729 -29.31867187 9.25396729 -28.63867188 9.25396729 C-28.30867188 8.26396729 -27.97867187 7.27396729 -27.63867188 6.25396729 C-19.61681653 -0.36406338 -9.96872166 -0.0383975 0 0 Z " fill="#125A7B" transform="translate(59.638671875,21.74603271484375)"/>
<path d="M0 0 C1.18330723 0.78812555 2.3373725 1.62092092 3.46875 2.48193359 C8.75354697 5.88191431 13.73852401 5.72205067 19.875 5.6640625 C20.99890137 5.66884613 22.12280273 5.67362976 23.28076172 5.67855835 C25.64747525 5.6819477 28.01423621 5.6728133 30.38085938 5.65185547 C33.98935009 5.62507903 37.59473025 5.6516393 41.203125 5.68359375 C43.51042349 5.68028948 45.81772005 5.67388291 48.125 5.6640625 C49.73157471 5.67924423 49.73157471 5.67924423 51.37060547 5.69473267 C57.4950023 5.59960124 61.39649762 4.86659936 66.29516602 1.07650757 C68.78430277 -0.49524345 70.99791191 -0.22988111 73.80859375 0.34765625 C77.32478938 1.39436689 80.75108174 2.63570081 84.17578125 3.94921875 C87.73831711 5.2746989 91.35131844 6.3406176 95.00390625 7.38671875 C97 8 97 8 99 9 C99.4021875 9.8971875 99.4021875 9.8971875 99.8125 10.8125 C100.89121623 13.19047233 100.89121623 13.19047233 103.39501953 14.6640625 C106.63905663 17.57305472 107.63333893 20.51616032 108.8671875 24.5625 C109.10773361 25.30230103 109.34827972 26.04210205 109.59611511 26.80432129 C110.37109465 29.19825303 111.123041 31.59874924 111.875 34 C112.40373339 35.6470582 112.9342567 37.29354285 113.46655273 38.93945312 C114.256674 41.38340642 115.04563282 43.82765482 115.82817078 46.27404785 C117.78712563 52.39378093 119.88197886 58.45560996 122.0625 64.5 C127.6101702 80.11175458 133.06524447 98.65247188 125.8125 114.61328125 C122.72415863 120.27803785 119.26692303 124.81118497 113 127 C110.12890625 127.44140625 110.12890625 127.44140625 107 127 C104.72198995 125.32594114 102.9051364 123.79029194 100.9375 121.8125 C100.43412109 121.32974609 99.93074219 120.84699219 99.41210938 120.34960938 C97.01934519 118.04351712 94.68540627 115.68216303 92.34765625 113.3203125 C90.45575759 111.45044926 88.55955177 109.73831453 86.5 108.0625 C84.18808112 106.12508202 82.27620627 104.20104448 80.4375 101.8125 C76.92716652 97.76211522 73.74912228 96.19539325 68.40908813 95.59886169 C67.06542095 95.57218968 65.72137065 95.56154498 64.37744141 95.56420898 C63.63839066 95.55413315 62.8993399 95.54405731 62.13789368 95.53367615 C59.70896028 95.50531603 57.28065088 95.49932591 54.8515625 95.49609375 C53.15294139 95.48644466 51.45432275 95.4763516 49.75570679 95.46583557 C46.20003482 95.44790438 42.64458115 95.44231146 39.08886719 95.4440918 C34.54694359 95.44439656 30.00642809 95.40343684 25.46483803 95.35177517 C21.95762789 95.31831395 18.45075472 95.31233717 14.94340134 95.31392097 C13.26972981 95.31039593 11.59604816 95.29721099 9.92253494 95.27392387 C-1.68996477 94.87447218 -1.68996477 94.87447218 -11.5093689 100.37556458 C-12.00127716 100.91162827 -12.49318542 101.44769196 -13 102 C-13.90443848 102.83998535 -14.80887695 103.6799707 -15.74072266 104.54541016 C-16.5404248 105.36831543 -17.34012695 106.1912207 -18.1640625 107.0390625 C-19.50597656 108.40417969 -19.50597656 108.40417969 -20.875 109.796875 C-21.7825 110.73015625 -22.69 111.6634375 -23.625 112.625 C-25.44565066 114.4969366 -27.27103068 116.36428735 -29.1015625 118.2265625 C-29.89900879 119.04721191 -30.69645508 119.86786133 -31.51806641 120.71337891 C-38.34166133 127 -38.34166133 127 -43.5 127 C-50.37783623 125.03490394 -54.03825993 121.41841603 -57.7421875 115.484375 C-64.1972637 102.73459716 -61.16775291 86.05077159 -57.05078125 72.98828125 C-56.39979014 71.22571638 -55.7296073 69.47010359 -55.0390625 67.72265625 C-53.84863214 64.60337069 -52.89110451 61.44930672 -51.9375 58.25 C-50.92776165 54.89861164 -49.90139519 51.77403063 -48.5 48.5625 C-46.56320781 43.96261855 -45.31353973 39.24802063 -43.97265625 34.4453125 C-41.39155491 25.30261619 -39.06165353 17.69951745 -32 11 C-31.34 10.01 -30.68 9.02 -30 8 C-27.78515625 7.03271484 -27.78515625 7.03271484 -25.0625 6.2109375 C-24.08539063 5.90929687 -23.10828125 5.60765625 -22.1015625 5.296875 C-21.07804687 4.99265625 -20.05453125 4.6884375 -19 4.375 C-16.97881327 3.7589708 -14.95796258 3.14183766 -12.9375 2.5234375 C-11.58978516 2.1200415 -11.58978516 2.1200415 -10.21484375 1.70849609 C-3.6173913 -0.40193237 -3.6173913 -0.40193237 0 0 Z " fill="#00294F" transform="translate(230,230)"/>
<path d="M0 0 C31.68 0 63.36 0 96 0 C96.495 1.485 96.495 1.485 97 3 C97.99 3.33 98.98 3.66 100 4 C100 4.66 100 5.32 100 6 C100.73476562 6.27585938 101.46953125 6.55171875 102.2265625 6.8359375 C104.79774692 7.91511068 106.99033919 9.19420351 109.375 10.625 C116.76634012 14.34273376 124.95247965 14.21602442 132.90234375 12.30078125 C139.05962428 10.05228281 145.03364812 6.42190062 149.36012745 1.43099499 C152.28301132 -1.1195887 156.26825026 -0.38655821 159.96948242 -0.34057617 C160.88675613 -0.34101425 161.80402985 -0.34145233 162.74909973 -0.34190369 C165.78477166 -0.33981158 168.81989315 -0.31646051 171.85546875 -0.29296875 C173.95868122 -0.2873743 176.06189759 -0.28310349 178.16511536 -0.28010559 C183.70379407 -0.26864497 189.2422372 -0.23916719 194.78082275 -0.20599365 C201.42458986 -0.16992698 208.06843568 -0.15613743 214.71227264 -0.13863373 C224.80834567 -0.1095307 234.90390166 -0.05205168 245 0 C245 19.8 245 39.6 245 60 C164.15 60 83.3 60 0 60 C0 40.2 0 20.4 0 0 Z " fill="#FDFDFD" transform="translate(48,134)"/>
<path d="M0 0 C1.010625 0.53625 2.02125 1.0725 3.0625 1.625 C7.72215817 5.3923832 11.10154826 10.30464478 13 16 C13.96372318 26.16289894 13.92231763 33.61168773 7.7265625 42.19140625 C7.15679687 42.78824219 6.58703125 43.38507813 6 44 C5.34 44 4.68 44 4 44 C4 44.66 4 45.32 4 46 C-1.07980232 48.78783078 -5.81487918 51.07977765 -11.5 52.3125 C-16.91403559 53.6660089 -20.25880009 56.18310328 -24.44140625 59.796875 C-27.18178113 62.15652604 -30.01789462 64.3043849 -32.9375 66.4375 C-33.83339844 67.09621094 -34.72929687 67.75492187 -35.65234375 68.43359375 C-38 70 -38 70 -41 71 C-41.62313621 72.91158751 -41.62313621 72.91158751 -41.875 75.1875 C-43.02630364 81.17237597 -45.53601397 84.25718061 -50.5625 87.8125 C-56.31335111 90.6141967 -63.10720664 91.18065656 -69.25390625 89.31640625 C-75.05065346 86.66552185 -78.78629106 83.00242291 -81.20947266 77.00805664 C-83.45072854 73.24278342 -85.89146459 72.20272291 -89.8359375 70.74609375 C-90.51113434 70.47789322 -91.18633118 70.20969269 -91.88198853 69.93336487 C-94.03922726 69.08175958 -96.20629526 68.25940381 -98.375 67.4375 C-99.79371099 66.88275386 -101.21168871 66.32612857 -102.62890625 65.76757812 C-106.74296505 64.15281712 -110.87014657 62.57382746 -115 61 C-117.39774533 60.08230836 -119.79461972 59.16238384 -122.19140625 58.2421875 C-123.18342041 57.86304199 -124.17543457 57.48389648 -125.19750977 57.09326172 C-128.00401719 55.99843288 -130.78493669 54.8535968 -133.5625 53.6875 C-134.52542969 53.28789063 -135.48835938 52.88828125 -136.48046875 52.4765625 C-138.45029036 51.65015565 -140.41800555 50.81851228 -142.37744141 49.96777344 C-145.03615129 48.81518516 -147.7047737 47.68811497 -150.375 46.5625 C-151.2316626 46.18375732 -152.0883252 45.80501465 -152.97094727 45.41479492 C-157.9847194 43.28265922 -157.9847194 43.28265922 -163.3046875 43.75 C-164.19414062 44.1625 -165.08359375 44.575 -166 45 C-173.59554995 46.16383427 -179.749613 44.42181634 -186 40 C-190.79761259 35.16937631 -191.82002218 30.78965622 -192.25 24.125 C-192.15416525 17.7639684 -189.38848561 12.51038799 -185 8 C-179.48203806 3.56163931 -174.38483656 3.2796726 -167.38671875 3.48046875 C-162.32096566 4.25756813 -159.45377497 6.3287329 -156 10 C-155.195625 10.845625 -154.39125 11.69125 -153.5625 12.5625 C-151.93002234 15.10916514 -151.34134306 17.01324822 -151 20 C-149.81535156 20.37511719 -148.63070312 20.75023438 -147.41015625 21.13671875 C-141.31004106 23.17088492 -135.36960847 25.59890362 -129.4125061 28.01242065 C-126.07167022 29.36580067 -122.72764491 30.71121937 -119.3828125 32.0546875 C-118.73329117 32.31557663 -118.08376984 32.57646576 -117.41456604 32.84526062 C-112.5735082 34.78378457 -107.70889184 36.6441153 -102.8125 38.4375 C-95.82671508 41.01280017 -89.11502167 44.05628274 -82.38671875 47.234375 C-76.70395982 49.75238048 -73.01055303 50.46967805 -67 49 C-66.30390625 48.86343994 -65.6078125 48.72687988 -64.890625 48.58618164 C-57.60710708 46.76449503 -54.8851634 42.69170269 -51.0625 36.5 C-50.49982422 35.63246094 -49.93714844 34.76492187 -49.35742188 33.87109375 C-48.31975485 32.266863 -47.29191699 30.65619728 -46.27758789 29.03710938 C-45.2132662 27.34005221 -44.11117176 25.66675764 -43 24 C-42.51694772 22.11525843 -42.08500717 20.21712026 -41.6875 18.3125 C-39.7719729 10.48997799 -37.285281 5.33703554 -30.625 0.625 C-20.87959795 -5.24784491 -10.04722896 -5.42550364 0 0 Z " fill="#0081AD" transform="translate(233,44)"/>
<path d="M0 0 C31.19453101 -0.02202645 62.38905454 -0.0404979 93.58359089 -0.05106533 C97.26251438 -0.05231611 100.94143786 -0.05361042 104.62036133 -0.05493164 C105.35279964 -0.05519395 106.08523795 -0.05545626 106.83987135 -0.05572652 C118.71497418 -0.06008333 130.5900722 -0.06797094 142.46517216 -0.0771528 C154.64106031 -0.08648903 166.81694591 -0.09205554 178.99283749 -0.09408849 C186.51205311 -0.09546379 194.03125511 -0.0998147 201.55046654 -0.10791647 C207.30649272 -0.11380426 213.06251008 -0.11445904 218.81853867 -0.11310768 C221.18696616 -0.1133842 223.55539415 -0.11539185 225.92381859 -0.11920547 C229.14209787 -0.12413603 232.36031754 -0.12300066 235.57859802 -0.12025452 C237.00415226 -0.12462378 237.00415226 -0.12462378 238.45850557 -0.12908131 C244.88587879 -0.11412121 244.88587879 -0.11412121 246 1 C246.07313567 3.53049402 246.09247527 6.03304837 246.0625 8.5625 C246.05798828 9.27341797 246.05347656 9.98433594 246.04882812 10.71679688 C246.03700864 12.47790013 246.01907263 14.23896036 246 16 C240.07818919 20.11846101 235.67444471 20.53996092 228.5625 20.3125 C227.65951172 20.30283203 226.75652344 20.29316406 225.82617188 20.28320312 C221.63968933 20.21347894 217.55123264 19.99032494 213.40234375 19.41796875 C212.27957031 19.28003906 211.15679687 19.14210937 210 19 C209.67 19.33 209.34 19.66 209 20 C200.52471604 20.70148212 194.28051907 20.4492061 187 16 C180.57081279 13.72004595 174.36692257 15.19653034 168.125 17.3125 C167.07119141 17.65752563 167.07119141 17.65752563 165.99609375 18.00952148 C164.61221774 18.46372571 163.22966618 18.92199016 161.84863281 19.38476562 C160.318887 19.89387279 158.78142412 20.37972619 157.2421875 20.859375 C149.74475359 23.21048668 143.72317733 25.460216 139 32 C138.34 32 137.68 32 137 32 C136.7525 30.9275 136.505 29.855 136.25 28.75 C134.73639975 24.20919925 133.15469387 22.14086613 128.94458008 19.91169739 C124.83371242 18.63889543 120.97933191 18.71317943 116.69921875 18.7253418 C115.77017731 18.72023087 114.84113586 18.71511993 113.88394165 18.70985413 C110.81839526 18.69597401 107.75307404 18.6969135 104.6875 18.69921875 C102.55427975 18.69533141 100.42106027 18.69099666 98.2878418 18.68623352 C93.81914764 18.67877504 89.35053249 18.67906025 84.88183594 18.68432617 C79.15514289 18.6901251 73.42877281 18.67317763 67.70213318 18.6499815 C63.29779164 18.63525232 58.89352807 18.63437127 54.48916626 18.63749123 C52.37764851 18.63697776 50.26612643 18.63173536 48.15463257 18.62167931 C45.20313484 18.60934606 42.25226883 18.61608769 39.30078125 18.62768555 C38.42894196 18.62004181 37.55710266 18.61239807 36.65884399 18.60452271 C30.88228733 18.65470633 27.57509632 19.69129296 23.1875 23.625 C21.32554739 27.34890521 21.46092121 30.92048484 22 35 C23.65793554 38.89614851 25.14249883 40.41225665 29 42 C31.04826112 42.29353256 31.04826112 42.29353256 33.21252441 42.24723816 C34.46160332 42.25352989 34.46160332 42.25352989 35.73591614 42.25994873 C36.64097397 42.25432922 37.5460318 42.24870972 38.47851562 42.24291992 C39.91815926 42.24576744 39.91815926 42.24576744 41.3868866 42.24867249 C44.56009077 42.25237778 47.73306615 42.24167912 50.90625 42.23046875 C53.11055474 42.22927665 55.31485999 42.22882385 57.51916504 42.2290802 C62.13927388 42.22751574 66.75930519 42.21922898 71.37939453 42.20581055 C77.30452818 42.18882084 83.2295766 42.18499626 89.15473175 42.18575573 C93.7065716 42.18548392 98.25839279 42.18000099 102.81022644 42.17275429 C104.99513101 42.16956992 107.18003769 42.16760075 109.36494446 42.16686058 C112.41716114 42.16469459 115.46928715 42.15594459 118.52148438 42.14526367 C119.42654221 42.14571686 120.33160004 42.14617004 121.26408386 42.14663696 C122.09680313 42.14237198 122.9295224 42.13810699 123.78747559 42.13371277 C124.50865318 42.13203692 125.22983078 42.13036108 125.97286224 42.12863445 C128.3573769 42.03858843 128.3573769 42.03858843 132 41 C130.02 47.6 128.04 54.2 126 61 C84.42 61 42.84 61 0 61 C0 40.87 0 20.74 0 0 Z " fill="#F9FAFB" transform="translate(47,202)"/>
<path d="M0 0 C1.24910156 0.00483398 1.24910156 0.00483398 2.5234375 0.00976562 C3.35617188 -0.00634766 4.18890625 -0.02246094 5.046875 -0.0390625 C5.84351563 -0.03970703 6.64015625 -0.04035156 7.4609375 -0.04101562 C8.19183594 -0.04399658 8.92273438 -0.04697754 9.67578125 -0.05004883 C11.5234375 0.32226562 11.5234375 0.32226562 13.5234375 3.32226562 C13.82641602 5.48291016 13.82641602 5.48291016 13.90234375 7.95507812 C13.93650391 8.84324219 13.97066406 9.73140625 14.00585938 10.64648438 C14.03228516 11.57074219 14.05871094 12.495 14.0859375 13.44726562 C14.14561632 15.28334178 14.20920338 17.11929652 14.27734375 18.95507812 C14.30127197 19.7686377 14.3252002 20.58219727 14.34985352 21.42041016 C14.31979375 23.33192479 14.31979375 23.33192479 15.5234375 24.32226562 C16.98719233 24.45475826 18.45666779 24.52548557 19.92578125 24.56835938 C21.26092773 24.61766602 21.26092773 24.61766602 22.62304688 24.66796875 C24.51094934 24.72903648 26.39897727 24.7863445 28.28710938 24.83984375 C29.17849609 24.87400391 30.06988281 24.90816406 30.98828125 24.94335938 C32.21985962 24.9809436 32.21985962 24.9809436 33.47631836 25.01928711 C35.5234375 25.32226562 35.5234375 25.32226562 37.5234375 27.32226562 C37.73528398 29.86800123 37.82742558 32.302272 37.82421875 34.84960938 C37.82850388 35.59432999 37.832789 36.3390506 37.83720398 37.1063385 C37.84295032 38.68245425 37.8434453 40.25859653 37.83911133 41.8347168 C37.83595415 44.24704254 37.85939506 46.65813875 37.88476562 49.0703125 C37.88703887 50.60090991 37.88774199 52.13151062 37.88671875 53.66210938 C37.8959285 54.38405991 37.90513824 55.10601044 37.91462708 55.84983826 C37.86881766 60.80692113 37.86881766 60.80692113 36.3914032 63.01138306 C33.67363057 64.91863476 31.56414927 64.71066225 28.26367188 64.72631836 C26.32651306 64.74534462 26.32651306 64.74534462 24.35021973 64.76475525 C22.93920736 64.76270395 21.52819609 64.75971605 20.1171875 64.75585938 C18.67134353 64.76041974 17.22550172 64.76572488 15.77966309 64.77174377 C12.74999177 64.78067921 9.720584 64.77824665 6.69091797 64.76831055 C2.80668216 64.75681361 -1.07664554 64.77703992 -4.96076202 64.80622768 C-7.94620549 64.8245647 -10.93143025 64.82430244 -13.91691589 64.81859016 C-15.34906794 64.81843667 -16.78123456 64.82450392 -18.21333313 64.83688164 C-20.21443716 64.85174152 -22.21569046 64.83851055 -24.21679688 64.82397461 C-25.92530823 64.82372536 -25.92530823 64.82372536 -27.66833496 64.82347107 C-30.4765625 64.32226562 -30.4765625 64.32226562 -32.34353638 62.49317932 C-33.97024468 59.37635504 -33.86553777 56.79294319 -33.875 53.29101562 C-33.87787018 52.61808472 -33.88074036 51.94515381 -33.88369751 51.25183105 C-33.88573346 49.8330806 -33.88023632 48.41430178 -33.86767578 46.99560547 C-33.85161326 44.82911163 -33.86753804 42.66448298 -33.88671875 40.49804688 C-33.88473623 39.11653236 -33.88089237 37.735019 -33.875 36.35351562 C-33.87161621 35.10119141 -33.86823242 33.84886719 -33.86474609 32.55859375 C-33.44895408 29.0920913 -33.06437586 27.64572673 -30.4765625 25.32226562 C-28.20825195 24.77636719 -28.20825195 24.77636719 -25.58984375 24.71289062 C-24.65205078 24.68066406 -23.71425781 24.6484375 -22.74804688 24.61523438 C-21.77158203 24.60105469 -20.79511719 24.586875 -19.7890625 24.57226562 C-18.80099609 24.54261719 -17.81292969 24.51296875 -16.79492188 24.48242188 C-14.35538654 24.41171071 -11.91680725 24.35902298 -9.4765625 24.32226562 C-9.45674316 23.66629395 -9.43692383 23.01032227 -9.41650391 22.33447266 C-9.32143743 19.37165494 -9.21168498 16.40956031 -9.1015625 13.44726562 C-9.070625 12.41472656 -9.0396875 11.3821875 -9.0078125 10.31835938 C-8.96914063 9.33222656 -8.93046875 8.34609375 -8.890625 7.33007812 C-8.8592041 6.41887207 -8.8277832 5.50766602 -8.79541016 4.56884766 C-8.05147755 -0.67285817 -4.27899382 0.03808166 0 0 Z " fill="#FCFDFD" transform="translate(72.4765625,276.677734375)"/>
<path d="M0 0 C0.9255368 -0.0049649 1.85107361 -0.00992981 2.80465698 -0.01504517 C5.87140646 -0.02966852 8.93810418 -0.0364696 12.00488281 -0.04199219 C14.13616945 -0.04774413 16.26745607 -0.05350186 18.39874268 -0.05926514 C22.87097413 -0.06977605 27.34318761 -0.07561792 31.81542969 -0.07910156 C37.53971998 -0.08458207 43.26377191 -0.10860038 48.98798752 -0.13707352 C53.39240202 -0.15571991 57.79675938 -0.1609066 62.20121002 -0.16243744 C64.31108145 -0.16546069 66.42095196 -0.17347815 68.53078461 -0.18662262 C71.48685188 -0.20372235 74.44234051 -0.201793 77.3984375 -0.1953125 C78.26622833 -0.20452728 79.13401917 -0.21374207 80.02810669 -0.22323608 C85.42386792 -0.18627653 89.1834206 0.58901248 93.95800781 3.16113281 C96.87307933 6.37518602 98.20733679 8.93796695 98.45800781 13.22363281 C97.90416033 17.58518173 97.06903357 19.13899351 93.95800781 22.16113281 C90.88179354 24.21194233 90.23851138 24.41350804 86.76530457 24.43528748 C85.48475945 24.45025017 85.48475945 24.45025017 84.17834473 24.46551514 C83.24478149 24.46617981 82.31121826 24.46684448 81.34936523 24.4675293 C80.36370071 24.47585281 79.37803619 24.48417633 78.36250305 24.49275208 C75.09612098 24.51689533 71.82993847 24.52562985 68.56347656 24.53222656 C66.2952722 24.54119011 64.02706847 24.5503119 61.75886536 24.55958557 C56.99995485 24.57609025 52.24111482 24.58377829 47.48217773 24.58666992 C41.38543693 24.59205295 35.28935894 24.62972412 29.19280529 24.67541409 C24.50618577 24.70516461 19.81972615 24.71239306 15.1330204 24.71339607 C12.88554158 24.71760289 10.63806247 24.73005556 8.3906765 24.75091362 C5.24490105 24.77778323 2.10066578 24.77301481 -1.04516602 24.76049805 C-1.97265656 24.77533234 -2.90014709 24.79016663 -3.85574341 24.80545044 C-8.18166533 24.75646077 -11.13976502 24.54928704 -14.60429382 21.81117249 C-17.91433095 18.21280698 -18.49986677 15.16679557 -18.46386719 10.29785156 C-17.69068623 6.3818332 -15.03554251 3.67396702 -12.04199219 1.16113281 C-8.03574469 -0.17428302 -4.17784172 0.005332 0 0 Z " fill="#115171" transform="translate(86.0419921875,151.8388671875)"/>
<path d="M0 0 C10.89 0 21.78 0 33 0 C33.02094549 7.66837567 33.04098358 15.33664831 33.05175018 23.00502777 C33.0570399 26.57571125 33.06411339 30.14637115 33.07543945 33.71704102 C33.08834176 37.81006097 33.09322906 41.9030558 33.09765625 45.99609375 C33.10281754 47.28148544 33.10797882 48.56687714 33.11329651 49.89122009 C33.11337204 51.07236893 33.11344757 52.25351776 33.11352539 53.47045898 C33.115746 54.51636703 33.11796661 55.56227509 33.12025452 56.63987732 C33 59 33 59 32 60 C29.2611158 60.09516211 26.54752059 60.12554594 23.80834961 60.11352539 C22.94988937 60.11367142 22.09142914 60.11381744 21.20695496 60.1139679 C18.35539262 60.11326847 15.50389475 60.1054747 12.65234375 60.09765625 C10.68079158 60.09579218 8.70923895 60.09436822 6.73768616 60.09336853 C1.53773733 60.08954251 -3.66218375 60.07971152 -8.86212158 60.06866455 C-14.16393661 60.05845222 -19.4657561 60.05387129 -24.76757812 60.04882812 C-35.17839763 60.03808933 -45.58919651 60.02101191 -56 60 C-56 59.34 -56 58.68 -56 58 C-53.96633799 56.45763262 -51.93877684 55.02875559 -49.8125 53.625 C-48.65113083 52.84816443 -47.49095784 52.06953736 -46.33203125 51.2890625 C-45.47822876 50.71744385 -45.47822876 50.71744385 -44.60717773 50.13427734 C-42.79416823 48.89201128 -42.79416823 48.89201128 -40.4609375 46.828125 C-37.6132003 44.71266308 -35.2379663 44.00118505 -31.8125 43.125 C-26.32117058 41.55604874 -21.8956885 39.47510246 -17.12109375 36.3671875 C-15.13261521 35.08547942 -13.13396019 34.01617152 -11 33 C-10.566875 33.94875 -10.13375 34.8975 -9.6875 35.875 C-8.20697799 39.20041937 -8.20697799 39.20041937 -5 41 C-0.71482291 41.68987371 3.94058129 42.15485527 7.83203125 39.97265625 C10.59547637 37.09771767 11.3094941 34.26487631 11.4375 30.4375 C11.33113679 26.92751401 10.74244616 24.07369558 9 21 C6.38861714 19.74984645 6.38861714 19.74984645 3.375 19.1875 C1.60125 18.795625 -0.1725 18.40375 -2 18 C-1.34 12.06 -0.68 6.12 0 0 Z " fill="#FCFCFC" transform="translate(260,65)"/>
<path d="M0 0 C2.97 0.33 5.94 0.66 9 1 C12.36961005 0.95957938 15.71698783 0.81740684 19.08203125 0.64453125 C22.75453405 1.0919178 23.44911037 2.44911037 26 5 C29.05919755 5.51517182 29.05919755 5.51517182 32.4375 5.4375 C40.08336052 5.77131096 46.06945518 7.88813948 53 11 C53.77730469 11.34417969 54.55460937 11.68835938 55.35546875 12.04296875 C56.77961944 12.67851869 58.20153047 13.31911239 59.62109375 13.96484375 C64.67167809 16.16255286 69.84701858 18.05792158 75 20 C75.86109375 20.32484375 76.7221875 20.6496875 77.609375 20.984375 C79.40508477 21.65935811 81.20232189 22.33027678 83 23 C83 23.33 83 23.66 83 24 C55.61 24 28.22 24 0 24 C0 16.08 0 8.16 0 0 Z " fill="#FCFCFD" transform="translate(48,101)"/>
<path d="M0 0 C1.15371094 -0.01611328 2.30742187 -0.03222656 3.49609375 -0.04882812 C4.60082031 -0.04947266 5.70554688 -0.05011719 6.84375 -0.05078125 C8.36258789 -0.05525269 8.36258789 -0.05525269 9.91210938 -0.05981445 C12.5 0.3125 12.5 0.3125 14.33081055 1.68676758 C15.95592504 3.94645382 15.86583223 5.55563375 15.8125 8.3125 C15.80863281 9.17875 15.80476563 10.045 15.80078125 10.9375 C15.5 13.3125 15.5 13.3125 13.5 16.3125 C10.71850586 16.66894531 10.71850586 16.66894531 7.21484375 16.640625 C5.96251953 16.63546875 4.71019531 16.6303125 3.41992188 16.625 C2.10572266 16.604375 0.79152344 16.58375 -0.5625 16.5625 C-1.88056641 16.55734375 -3.19863281 16.5521875 -4.55664062 16.546875 C-14.34632305 16.46617695 -14.34632305 16.46617695 -15.5 15.3125 C-15.65154969 13.1704034 -15.72177745 11.02226538 -15.75 8.875 C-15.77578125 7.70066406 -15.8015625 6.52632813 -15.828125 5.31640625 C-15.71984375 4.32511719 -15.6115625 3.33382813 -15.5 2.3125 C-10.72800148 -0.86883234 -5.60952168 -0.01566905 0 0 Z " fill="#FBFCFC" transform="translate(139.5,312.6875)"/>
<path d="M0 0 C3.11845928 3.675327 3.57000984 7.10772799 3.4296875 11.77734375 C2.69387346 15.58350909 0.77545759 17.35670706 -2 20 C-5.71924173 21.85962086 -9.95020231 21.57398707 -14 21 C-18.6076255 17.54428088 -20.65319983 14.2975511 -21.5 8.6875 C-20.84535417 3.85948704 -18.76289624 1.05519557 -15 -2 C-10.13250444 -3.7534482 -4.22787562 -3.01991116 0 0 Z " fill="#165574" transform="translate(234,155)"/>
<path d="M0 0 C3.01453147 2.24157468 4.56463624 4.56515571 6 8 C6.24590892 12.58210297 5.55448599 16.14144105 3.0625 20 C-0.58363098 23.53564217 -3.616424 23.3283676 -8.515625 23.29296875 C-11.97198834 22.88537873 -13.68663869 21.53723498 -16 19 C-18.09678541 14.80642919 -17.55270329 9.55524691 -17 5 C-12.36304886 -1.3914732 -7.23277234 -1.7033703 0 0 Z " fill="#155473" transform="translate(266,153)"/>
<path d="M0 0 C1.670625 0.061875 1.670625 0.061875 3.375 0.125 C4.8533226 3.08164519 4.43532783 5.86729737 4.375 9.125 C5.468125 9.063125 6.56125 9.00125 7.6875 8.9375 C11.375 9.125 11.375 9.125 13.375 10.25 C14.89980785 13.10901472 14.2320682 15.09229714 13.375 18.125 C10.41835481 19.6033226 7.63270263 19.18532783 4.375 19.125 C4.436875 20.218125 4.49875 21.31125 4.5625 22.4375 C4.375 26.125 4.375 26.125 3.1875 28.125 C1.375 29.125 1.375 29.125 -1.1875 28.9375 C-3.625 28.125 -3.625 28.125 -5.625 26.125 C-5.75 22.5 -5.75 22.5 -5.625 19.125 C-7.295625 19.186875 -7.295625 19.186875 -9 19.25 C-12.625 19.125 -12.625 19.125 -14.625 17.125 C-14.875 14.125 -14.875 14.125 -14.625 11.125 C-12.625 9.125 -12.625 9.125 -9 9 C-7.329375 9.061875 -7.329375 9.061875 -5.625 9.125 C-5.66625 8.01125 -5.7075 6.8975 -5.75 5.75 C-5.57901299 0.79137666 -4.95862334 0.17098701 0 0 Z " fill="#F1F2F3" transform="translate(239.625,284.875)"/>
<path d="M0 0 C16.83 0 33.66 0 51 0 C49.36277179 4.09307051 48.14217514 6.4136941 45.5 9.75 C44.58734375 10.91789062 44.58734375 10.91789062 43.65625 12.109375 C41.4580369 14.61865599 40.52550692 14.96360755 37.1796875 15.1953125 C33.87185418 14.99212863 32.05266333 14.36221556 29.125 12.875 C23.76735442 10.29158734 18.32757584 8.18029638 12.74658203 6.14404297 C8.4313853 4.56299293 4.21036 2.84339596 0 1 C0 0.67 0 0.34 0 0 Z " fill="#FBFBFB" transform="translate(124,65)"/>
<path d="M0 0 C2.93038162 1.2469709 4.41759241 2.22345655 6.3125 4.75 C7.32815881 8.0739743 7.41796486 10.53686262 7 14 C5.21523759 16.97239241 3.14791945 19.42604027 0 21 C-3.05920574 21.42071592 -5.9467746 21.48514117 -9 21 C-11.75569447 18.81840855 -13.43588747 17.12822506 -15 14 C-15.54724071 8.30869663 -14.59333707 5.43882815 -11 1 C-7.5507568 -0.7246216 -3.77868569 -0.36610104 0 0 Z " fill="#F9F9FA" transform="translate(219,259)"/>
<path d="M0 0 C1.91693865 1.3007798 3.28906721 2.37738822 4.75 4.1875 C5.44067538 7.9056358 5.3443315 11.45793349 4.75 15.1875 C1.46427492 19.62766902 -1.16526337 20.87282277 -6.5625 21.6875 C-10.44347349 21.16126631 -11.11333683 20.8714616 -13.6875 18.1875 C-15.73940156 15.47723431 -16.67008521 13.46750805 -16.8125 10.0625 C-16.14842158 5.48773758 -15.25139136 2.68854352 -11.5 -0.125 C-7.592367 -1.31899897 -3.85639173 -1.3925859 0 0 Z " fill="#F8F9F9" transform="translate(294.25,288.8125)"/>
<path d="M0 0 C3.77722012 2.60959971 5.86647651 5.23080921 7.3125 9.59765625 C8.19527208 14.68214969 8.41672168 19.31242927 6.1328125 24.0390625 C3.4257063 27.84724557 0.58523668 30.57997504 -3.6875 32.59765625 C-4.6775 33.09265625 -4.6775 33.09265625 -5.6875 33.59765625 C-12.06124058 34.20356943 -17.12062451 33.82644403 -22.6875 30.59765625 C-26.91571791 26.25198785 -29.44196913 21.77235821 -30.125 15.72265625 C-29.89169078 10.41740755 -27.85899572 5.94763107 -24.26171875 2.0546875 C-16.46491618 -4.81536334 -8.89055593 -4.86541094 0 0 Z M-23.5 6.09765625 C-26.39242671 9.75895589 -26.33072108 13.44735853 -26.109375 17.97265625 C-25.5107371 21.69751431 -24.23676582 23.8416932 -21.6875 26.59765625 C-16.779595 30.06910125 -12.69245926 31.1065511 -6.6875 30.59765625 C-1.95130094 28.13483274 1.42934618 25.09198427 4.3125 20.59765625 C5.2930082 15.9253215 4.79898084 11.93721974 2.5625 7.72265625 C-0.24012921 3.83011568 -2.17090777 2.10318699 -6.6875 0.59765625 C-14.14647245 -0.12868564 -17.86906771 1.0923831 -23.5 6.09765625 Z " fill="#0E3C59" transform="translate(229.6875,52.40234375)"/>
<path d="M0 0 C5.72043683 -0.45763495 8.59883843 0.28346356 13 4 C16.46570672 7.73931515 17.28389948 10.59385719 17.4375 15.5625 C17.25228836 19.83394351 17.02578987 22.77899788 14 26 C8.99054923 29.86145164 4.90620926 30.68194591 -1.3984375 30.46484375 C-5.52215711 29.72802298 -7.25669798 28.11401851 -10 25 C-10 24.34 -10 23.68 -10 23 C-9.01 23.33 -8.02 23.66 -7 24 C-1.86298544 25.44543527 2.85113473 25.93428925 7.875 23.75 C10.22900289 21.81140938 11.13327966 20.91533206 12 18 C12.30305293 14.13208757 12.65051692 9.57612 11 6 C9.31980946 4.82342532 9.31980946 4.82342532 7 4 C5.74908774 3.46044342 4.49913741 2.91865292 3.25 2.375 C2.1775 1.92125 1.105 1.4675 0 1 C0 0.67 0 0.34 0 0 Z " fill="#0F4967" transform="translate(169,98)"/>
<path d="M0 0 C0.85722656 0.09023438 1.71445313 0.18046875 2.59765625 0.2734375 C6.3607292 0.83884078 8.50036934 1.72365398 10.9375 4.625 C10.9375 5.285 10.9375 5.945 10.9375 6.625 C10.133125 6.295 9.32875 5.965 8.5 5.625 C4.20166913 4.41845098 0.3687061 3.93950955 -4.0625 4.625 C-6.93279869 6.41893668 -8.55381638 7.60763276 -10.0625 10.625 C-10.66517811 15.97161578 -11.07331578 20.20985791 -7.875 24.6875 C-5.29345993 26.46589427 -3.04505999 27.687624 -0.0625 28.625 C-0.0625 28.955 -0.0625 29.285 -0.0625 29.625 C-5.38151517 30.13157287 -7.92734812 28.95110043 -12.0625 25.625 C-14.88263739 23.25014746 -15.89667818 21.54431619 -16.55078125 17.91796875 C-16.91817672 12.19092172 -16.5729369 8.41767643 -12.8125 3.9375 C-8.77607676 -0.22829578 -5.63380328 -0.62881062 0 0 Z " fill="#0E3B58" transform="translate(63.0625,53.375)"/>
<path d="M0 0 C2 1.0625 2 1.0625 3 3 C3.50030235 6.93094707 3.5996142 9.1005787 1.375 12.4375 C-1.69817115 14.45932313 -3.38247881 14.52755517 -7 14 C-9.375 13 -9.375 13 -11 11 C-11.65964122 7.44238446 -11.63041883 4.26083766 -10 1 C-6.7413581 -0.62932095 -3.56102656 -0.52673518 0 0 Z " fill="#F7F8F8" transform="translate(268,240)"/>
<path d="M0 0 C2.59814888 2.25172903 2.95716454 3.65017705 3.375 7.0625 C3 10 3 10 1.875 11.875 C-0.89296119 13.53577671 -2.83090818 13.38805206 -6 13 C-8.375 11.875 -8.375 11.875 -10 10 C-10.62060815 6.35392711 -10.47464453 4.69371124 -8.375 1.625 C-5.30628876 -0.47464453 -3.64607289 -0.62060815 0 0 Z " fill="#F0F1F2" transform="translate(305,262)"/>
<path d="M0 0 C2.33043558 3.49565336 2.58763244 4.8865729 2 9 C-0.1875 11.4375 -0.1875 11.4375 -3 13 C-6.22337198 13 -7.4861874 12.46243134 -9.875 10.3125 C-11.43700842 7.10170492 -11.07389392 5.36486763 -10 2 C-6.89158888 -1.56891647 -4.37156516 -1.33047635 0 0 Z " fill="#F2F3F4" transform="translate(331,263)"/>
<path d="M0 0 C2 1.625 2 1.625 3 4 C2.77962372 7.67293796 2.63033454 9.36966546 0 12 C-1.875 12.30078125 -1.875 12.30078125 -4 12.3125 C-4.70125 12.32925781 -5.4025 12.34601563 -6.125 12.36328125 C-6.74375 12.24339844 -7.3625 12.12351562 -8 12 C-10.31282587 8.53076119 -10.42478586 7.07794425 -10 3 C-7.72375139 -1.01690931 -4.20725277 -0.5259066 0 0 Z " fill="#F5F5F6" transform="translate(318,250)"/>
<path d="M0 0 C3.4375 0.875 3.4375 0.875 4.9375 2.625 C5.57113583 5.47636126 5.42618455 7.12080734 4.4375 9.875 C2.6875 11.75 2.6875 11.75 0.4375 12.875 C-2.72337718 12.79790543 -4.08520469 12.30456578 -6.4375 10.1875 C-7.98209084 7.01250771 -7.5765792 5.20697451 -6.5625 1.875 C-3.5625 -0.125 -3.5625 -0.125 0 0 Z " fill="#F4F4F5" transform="translate(315.5625,275.125)"/>
</svg>
